<?xml version="1.0" encoding="UTF-8"?>
<svg viewBox="0 0 100 100" xmlns="http://www.w3.org/2000/svg" fill="currentColor">
  <!-- Octopus body -->
  <ellipse cx="50" cy="40" rx="30" ry="25" fill="#9266cc" />

  <!-- Eyes -->
  <circle cx="40" cy="35" r="6" fill="white" />
  <circle cx="60" cy="35" r="6" fill="white" />
  <circle cx="41" cy="34" r="3" fill="black" />
  <circle cx="61" cy="34" r="3" fill="black" />

  <!-- Eye highlights -->
  <circle cx="42" cy="32" r="1" fill="white" />
  <circle cx="62" cy="32" r="1" fill="white" />

  <!-- Mouth -->
  <ellipse cx="50" cy="45" rx="8" ry="4" fill="#7c3aed" />
  <ellipse cx="50" cy="43" rx="6" ry="2" fill="#9266cc" />

  <!-- Tentacles -->
  <path d="M 25 55 Q 15 65 20 75 Q 25 80 15 85" stroke="#9266cc" stroke-width="6" fill="none" stroke-linecap="round" />
  <path d="M 35 58 Q 25 68 30 78 Q 35 83 25 88" stroke="#9266cc" stroke-width="6" fill="none" stroke-linecap="round" />
  <path d="M 45 60 Q 35 70 40 80 Q 45 85 35 90" stroke="#9266cc" stroke-width="6" fill="none" stroke-linecap="round" />
  <path d="M 50 60 Q 45 70 50 80 Q 55 85 45 90" stroke="#9266cc" stroke-width="6" fill="none" stroke-linecap="round" />
  <path d="M 55 60 Q 65 70 60 80 Q 55 85 65 90" stroke="#9266cc" stroke-width="6" fill="none" stroke-linecap="round" />
  <path d="M 65 58 Q 75 68 70 78 Q 65 83 75 88" stroke="#9266cc" stroke-width="6" fill="none" stroke-linecap="round" />
  <path d="M 75 55 Q 85 65 80 75 Q 75 80 85 85" stroke="#9266cc" stroke-width="6" fill="none" stroke-linecap="round" />
  <path d="M 50 62 Q 60 72 55 82 Q 50 87 60 92" stroke="#9266cc" stroke-width="6" fill="none" stroke-linecap="round" />

  <!-- Suction cups -->
  <circle cx="18" cy="72" r="2.5" fill="#7c3aed" />
  <circle cx="28" cy="75" r="2.5" fill="#7c3aed" />
  <circle cx="38" cy="77" r="2.5" fill="#7c3aed" />
  <circle cx="48" cy="77" r="2.5" fill="#7c3aed" />
  <circle cx="58" cy="77" r="2.5" fill="#7c3aed" />
  <circle cx="68" cy="75" r="2.5" fill="#7c3aed" />
  <circle cx="78" cy="72" r="2.5" fill="#7c3aed" />
  <circle cx="58" cy="79" r="2.5" fill="#7c3aed" />
</svg>
